<svg xmlns="http://www.w3.org/2000/svg" width="130" height="32" fill="none"><g clip-path="url(#a)"><mask id="b" width="130" height="32" x="0" y="0" maskUnits="userSpaceOnUse" style="mask-type:luminance"><path fill="#fff" d="M130 0H0v31.2h130V0Z"/></mask><g mask="url(#b)"><mask id="c" width="130" height="32" x="0" y="0" maskUnits="userSpaceOnUse" style="mask-type:luminance"><path fill="#fff" d="M130 0H0v31.2h130V0Z"/></mask><g fill="#0A0B0B" mask="url(#c)"><path d="M65.733 4.854a38.156 38.156 0 0 0-6.531 4.834 169.889 169.889 0 0 0-5.975 5.604 108.905 108.905 0 0 0-3.266 3.293l-3.196 3.362a34.915 34.915 0 0 1-1.806 1.962 37.46 37.46 0 0 0-1.807 1.961 28.638 28.638 0 0 0 2.849-.84 78.011 78.011 0 0 1 2.64-.841 25.85 25.85 0 0 0 2.223-.56 21.64 21.64 0 0 1 2.363-.56 10.2 10.2 0 0 1 2.362-.281c.833-.047 1.598.07 2.293.35.88.327 1.412.888 1.597 1.682a2.02 2.02 0 0 1-.139 1.47c.788-.233 1.552-.49 2.293-.77.788-.28 1.529-.537 2.224-.77l4.03-1.262a31.414 31.414 0 0 1 4.099-1.12c.37-.094.81-.14 1.32-.14.556-.047 1.042 0 1.459.14.417.14.718.397.903.77.231.327.255.818.07 1.471-.14.42-.417.771-.834 1.051-.417.234-.903.42-1.46.56-.555.14-1.111.258-1.667.351-.556.047-.996.117-1.32.21-1.575.467-3.126.958-4.655 1.471l-4.586 1.401c-.787.234-1.644.468-2.57.701-.927.28-1.807.327-2.64.14-.325-.047-.672-.187-1.043-.42-.787-.608-1.158-1.168-1.111-1.682.046-.513.254-1.027.625-1.54h-.834c-1.667.28-3.335.63-5.002 1.05a81.38 81.38 0 0 0-4.1 1.261c-1.343.467-2.732.77-4.168.91a2.97 2.97 0 0 1-1.529-.28c-.51-.186-.88-.583-1.111-1.19-.186-.514-.186-1.005 0-1.472.185-.513.44-1.004.764-1.47a44.26 44.26 0 0 1-3.821 2.03 65.603 65.603 0 0 1-2.64 1.122c-1.205.513-2.502 1.05-3.891 1.611-1.39.56-2.78.817-4.17.77-1.528-.093-2.454-.513-2.778-1.26-.325-.748-.255-1.682.208-2.803.417-1.167 1.089-2.405 2.015-3.712a49.138 49.138 0 0 1 2.918-3.854 71.125 71.125 0 0 1 2.918-3.152c.88-.934 1.46-1.541 1.737-1.822l.973-.98h-3.96c-1.297 0-2.617.023-3.96.07-2.687.093-5.35.233-7.99.42-2.687.14-5.374.35-8.06.63-.973.14-1.922.28-2.849.421a21.15 21.15 0 0 0-2.918.49 6.383 6.383 0 0 0-.764.21c-.278.094-.533.094-.764 0-.51-.186-.742-.513-.695-.98 0-.514.231-.84.695-.981a90.746 90.746 0 0 1 17.16-2.732c5.883-.42 11.696-.677 17.44-.77a229.304 229.304 0 0 1 3.613-3.293 262.321 262.321 0 0 1 3.682-3.223 44.022 44.022 0 0 0 2.085-2.102c.833-.887 1.667-1.447 2.5-1.68.464-.141.858-.118 1.182.07.37.14.648.396.834.77.185.327.254.7.208 1.12a1.846 1.846 0 0 1-.556 1.121 345.192 345.192 0 0 0-4.238 3.643 99.6 99.6 0 0 0-4.1 3.643 6.53 6.53 0 0 1 1.946.28 3.87 3.87 0 0 1 1.46.701c.463.327.787.817.972 1.471.139.56.07 1.051-.209 1.471a2.613 2.613 0 0 1-1.042.841 2.52 2.52 0 0 1-1.32.07c-.417-.14-.74-.444-.972-.91-.603-.234-1.297-.398-2.085-.491a12.72 12.72 0 0 0-2.223-.21l-.695.63a602.11 602.11 0 0 0-6.045 5.885c-2.084 2.102-3.728 4.367-4.932 6.795a36.752 36.752 0 0 0 5.002-1.4 67.55 67.55 0 0 0 5.072-2.032 95.937 95.937 0 0 0 4.933-2.382 57.986 57.986 0 0 0 4.516-2.732 192.656 192.656 0 0 1 5.35-5.325 142.651 142.651 0 0 1 5.628-5.114 109.911 109.911 0 0 1 3.543-3.012 50.057 50.057 0 0 1 3.682-2.732 3.761 3.761 0 0 1 1.668-.7c.648-.14 1.18.116 1.598.77.231.42.278.887.139 1.4-.093.468-.348.842-.764 1.122Z"/><path d="M106.371 25.94a19.162 19.162 0 0 0-3.195.561c-1.02.234-2.062.467-3.127.7-2.78.655-5.535 1.285-8.268 1.892a81.5 81.5 0 0 1-8.337 1.261c-.742.094-1.53.164-2.363.21-.787.047-1.598.024-2.431-.07a9.68 9.68 0 0 1-2.293-.56 5.73 5.73 0 0 1-2.015-1.12 4.48 4.48 0 0 1-1.181-1.472 4.084 4.084 0 0 1-.556-1.752 3.721 3.721 0 0 1 .139-1.75c.185-.608.533-1.145 1.042-1.612.324-.327.834-.584 1.529-.77a12.46 12.46 0 0 1 2.431-.491c.88-.093 1.76-.117 2.64-.07.88.047 1.645.21 2.293.49.649.28 1.089.677 1.32 1.191.278.467.255 1.074-.07 1.822-.277.56-.694.957-1.25 1.19a7.359 7.359 0 0 1-1.876.491 16.57 16.57 0 0 1-2.153 0 48.477 48.477 0 0 1-1.946-.28c.185.187.556.35 1.112.49.555.094 1.134.164 1.737.21.648.047 1.227.07 1.737.07h1.042a54.473 54.473 0 0 0 6.74-.98 284.58 284.58 0 0 0 6.739-1.472c1.62-.373 3.219-.747 4.794-1.12a35.593 35.593 0 0 1 4.863-.911c.695-.047 1.274.117 1.738.49.462.374.763.817.902 1.331.14.467.07.911-.208 1.331-.232.42-.741.654-1.529.7Z"/><path d="M127.341 25.94a395.71 395.71 0 0 0-7.225.21 26.845 26.845 0 0 1-7.226-.84c-.185 0-.371-.046-.556-.14a8.704 8.704 0 0 1-1.25 2.312 9.272 9.272 0 0 1-1.737 1.821 6.352 6.352 0 0 1-2.154 1.121 4.007 4.007 0 0 1-2.224.07c-.694-.186-1.204-.537-1.528-1.05a3.34 3.34 0 0 1-.626-1.752 4.82 4.82 0 0 1 .278-1.961 5.559 5.559 0 0 1 .834-1.752 5.565 5.565 0 0 1 2.293-1.681c.926-.374 1.853-.42 2.779-.14.093-.654.463-1.168 1.111-1.542.649-.373 1.344-.326 2.085.14a9.49 9.49 0 0 0 2.223.981 15.5 15.5 0 0 0 2.571.35c.881.047 1.737.07 2.571.07a48.04 48.04 0 0 1 2.501-.07c.926 0 1.922-.046 2.988-.14 1.065-.14 2.037-.07 2.918.21.51.188.857.491 1.042.912.231.42.301.84.208 1.26a1.85 1.85 0 0 1-.555 1.121c-.325.327-.765.49-1.321.49Zm-20.774.911c.139-.14.417-.21.834-.21v-.63a4.19 4.19 0 0 1-.417.35c-.185.093-.325.257-.417.49Z"/></g></g></g><defs><clipPath id="a"><path fill="#fff" d="M0 0h130v32H0z"/></clipPath></defs></svg>